<svg width="237" height="237" viewBox="0 0 237 237" fill="none" xmlns="http://www.w3.org/2000/svg">
<path d="M222.188 218.484H211.078V44.4375C211.078 43.4554 210.688 42.5135 209.994 41.819C209.299 41.1245 208.357 40.7344 207.375 40.7344H29.625C28.6429 40.7344 27.701 41.1245 27.0065 41.819C26.312 42.5135 25.9219 43.4554 25.9219 44.4375V218.484H14.8125C13.8304 218.484 12.8885 218.875 12.194 219.569C11.4995 220.263 11.1094 221.205 11.1094 222.188C11.1094 223.17 11.4995 224.112 12.194 224.806C12.8885 225.5 13.8304 225.891 14.8125 225.891H222.188C223.17 225.891 224.112 225.5 224.806 224.806C225.5 224.112 225.891 223.17 225.891 222.188C225.891 221.205 225.5 220.263 224.806 219.569C224.112 218.875 223.17 218.484 222.188 218.484ZM33.3281 70.3594H203.672V99.9844H33.3281V70.3594ZM203.672 48.1406V62.9531H33.3281V48.1406H203.672ZM85.1719 218.484V166.641H122.203V218.484H85.1719ZM129.609 218.484V162.938C129.609 161.955 129.219 161.013 128.525 160.319C127.83 159.625 126.888 159.234 125.906 159.234H81.4688C80.4866 159.234 79.5447 159.625 78.8502 160.319C78.1558 161.013 77.7656 161.955 77.7656 162.938V218.484H33.3281V107.391H203.672V218.484H129.609Z" fill="black"/>
<path d="M192.562 122.203H148.125C147.143 122.203 146.201 122.593 145.506 123.288C144.812 123.982 144.422 124.924 144.422 125.906V140.719C144.422 141.701 144.812 142.643 145.506 143.337C146.201 144.032 147.143 144.422 148.125 144.422H192.562C193.545 144.422 194.487 144.032 195.181 143.337C195.875 142.643 196.266 141.701 196.266 140.719V125.906C196.266 124.924 195.875 123.982 195.181 123.288C194.487 122.593 193.545 122.203 192.562 122.203ZM188.859 137.016H151.828V129.609H188.859V137.016Z" fill="black"/>
<path d="M51.8438 122.203C49.6465 122.203 47.4986 122.855 45.6717 124.075C43.8448 125.296 42.4209 127.031 41.58 129.061C40.7392 131.091 40.5192 133.325 40.9478 135.48C41.3765 137.635 42.4346 139.614 43.9882 141.168C45.5419 142.722 47.5214 143.78 49.6764 144.208C51.8314 144.637 54.0652 144.417 56.0951 143.576C58.1251 142.735 59.8602 141.311 61.0809 139.485C62.3016 137.658 62.9531 135.51 62.9531 133.312C62.9531 130.366 61.7827 127.54 59.6993 125.457C57.6159 123.374 54.7901 122.203 51.8438 122.203ZM51.8438 137.016C51.1113 137.016 50.3954 136.798 49.7864 136.392C49.1774 135.985 48.7028 135.406 48.4225 134.73C48.1422 134.053 48.0689 133.308 48.2118 132.59C48.3547 131.872 48.7074 131.212 49.2253 130.694C49.7431 130.176 50.403 129.823 51.1213 129.681C51.8396 129.538 52.5842 129.611 53.2609 129.891C53.9375 130.172 54.5159 130.646 54.9228 131.255C55.3297 131.864 55.5469 132.58 55.5469 133.312C55.5469 134.295 55.1567 135.237 54.4623 135.931C53.7678 136.625 52.8259 137.016 51.8438 137.016Z" fill="black"/>
</svg>
