<svg width="225" height="225" viewBox="0 0 225 225" fill="none" xmlns="http://www.w3.org/2000/svg">
<path d="M89.0625 128.906C89.0625 138 96.0938 145.313 104.719 145.313H122.344C129.844 145.313 135.938 138.938 135.938 130.969C135.938 122.438 132.188 119.344 126.656 117.375L98.4375 107.531C92.9063 105.563 89.1563 102.563 89.1563 93.9376C89.1563 86.0625 95.25 79.5938 102.75 79.5938H120.375C129 79.5938 136.031 86.9062 136.031 96.0001" stroke="#292D32" stroke-width="7" stroke-linecap="round" stroke-linejoin="round"/>
<path d="M112.5 70.3125V154.688" stroke="#292D32" stroke-width="7" stroke-linecap="round" stroke-linejoin="round"/>
<path d="M206.25 112.5C206.25 164.25 164.25 206.25 112.5 206.25C60.75 206.25 18.75 164.25 18.75 112.5C18.75 60.75 60.75 18.75 112.5 18.75" stroke="#292D32" stroke-width="7" stroke-linecap="round" stroke-linejoin="round"/>
<path d="M206.25 56.25V18.75H168.75" stroke="#292D32" stroke-width="7" stroke-linecap="round" stroke-linejoin="round"/>
<path d="M159.375 65.625L206.25 18.75" stroke="#292D32" stroke-width="7" stroke-linecap="round" stroke-linejoin="round"/>
</svg>
