<svg width="208" height="208" viewBox="0 0 208 208" fill="none" xmlns="http://www.w3.org/2000/svg">
<path d="M142.87 104C142.87 107.601 141.32 111.033 138.619 113.412L111.537 137.312L115.836 142.188L142.919 118.287C147.02 114.673 149.37 109.463 149.37 104H142.87Z" fill="black"/>
<path d="M185.412 146.25C180.482 146.25 175.835 148.08 172.25 151.424C168.662 148.08 164.015 146.25 159.088 146.25C154.099 146.25 149.559 148.164 146.127 151.278L136.308 141.46L151.522 128.037C155.019 124.949 157.752 121.17 159.604 117H169C188.711 117 204.75 100.961 204.75 81.25C204.75 61.3763 188.334 45.3408 168.516 45.5033C165.315 21.5638 144.706 3.25 120.25 3.25C105.658 3.25 91.7215 9.93525 82.4915 21.242C78.9295 20.085 75.244 19.5 71.5 19.5C55.445 19.5 41.3758 30.3062 37.0858 45.552C18.2585 46.5465 3.25 62.179 3.25 81.25C3.25 100.961 19.2887 117 39 117H48.282C50.128 121.147 52.8418 124.911 56.3095 127.982L71.6203 141.537L61.8767 151.281C58.4415 148.164 53.9013 146.25 48.9125 146.25C43.9823 146.25 39.3348 148.08 35.75 151.424C32.162 148.08 27.5145 146.25 22.5875 146.25C11.9242 146.25 3.25 154.924 3.25 165.588C3.25 170.752 5.26175 175.607 8.91475 179.26L35.75 206.096L62.5885 179.26C66.2382 175.607 68.25 170.752 68.25 165.588C68.25 162.269 67.4082 159.146 65.9295 156.413L76.492 145.85L103.867 170.085L131.423 145.769L142.067 156.413C140.592 159.146 139.75 162.269 139.75 165.588C139.75 170.752 141.762 175.607 145.415 179.26L172.25 206.096L199.088 179.26C202.738 175.607 204.75 170.752 204.75 165.588C204.75 154.924 196.076 146.25 185.412 146.25ZM57.9898 174.665L35.75 196.904L13.5103 174.665C11.0858 172.24 9.75 169.016 9.75 165.588C9.75 158.509 15.509 152.75 22.5875 152.75C26.0162 152.75 29.2403 154.086 31.6648 156.51L35.75 160.596L39.8385 156.51C42.2598 154.086 45.4838 152.75 48.9125 152.75C55.991 152.75 61.75 158.509 61.75 165.588C61.75 169.016 60.4143 172.24 57.9898 174.665ZM39 110.5C22.8735 110.5 9.75 97.3765 9.75 81.25C9.75 65.1268 22.8637 52.0065 39.104 52.0065C39.104 52.0065 39.1137 52.0065 39.1202 52.0065L42.2955 52.091L42.835 49.426C45.5748 35.854 57.629 26 71.5 26C75.231 26 78.897 26.715 82.3973 28.119L84.734 29.0615L86.2258 27.0303C94.302 16.0485 106.704 9.75 120.25 9.75C142.379 9.75 160.875 27.0563 162.354 49.1498L162.578 52.5168L165.932 52.1658C166.943 52.0585 167.963 52 169 52C185.126 52 198.25 65.1235 198.25 81.25C198.25 97.3765 185.126 110.5 169 110.5H161.688C162.126 108.378 162.367 106.2 162.367 104V103.561C162.367 85.8845 147.986 71.5032 130.27 71.5032C122.983 71.5032 115.846 74.0187 110.168 78.5882L103.948 83.5933L97.513 78.4745C91.8645 73.9732 84.7763 71.5 77.558 71.5C68.9683 71.5 60.9018 74.854 54.8405 80.9413C48.7793 87.0318 45.461 95.1145 45.5 103.704V104.123C45.5098 106.285 45.7567 108.417 46.189 110.5H39ZM60.619 123.113C55.1753 118.297 52.0357 111.361 52.0032 104.094V103.675C51.974 96.824 54.6162 90.3793 59.449 85.527C64.2817 80.6747 70.7102 78 77.5612 78C83.317 78 88.9655 79.9727 93.47 83.5542L103.977 91.91L114.247 83.6452C118.771 80.0052 124.462 78 130.309 78C144.401 78 155.87 89.466 155.87 103.558V104C155.87 111.329 152.718 118.316 147.219 123.165L103.873 161.411L60.619 123.113ZM194.49 174.665L172.25 196.904L150.01 174.665C147.586 172.24 146.25 169.016 146.25 165.588C146.25 158.509 152.009 152.75 159.088 152.75C162.516 152.75 165.74 154.086 168.165 156.51L172.25 160.596L176.338 156.51C178.76 154.086 181.984 152.75 185.412 152.75C192.491 152.75 198.25 158.509 198.25 165.588C198.25 169.016 196.914 172.24 194.49 174.665Z" fill="black"/>
</svg>
