<svg width="233" height="233" viewBox="0 0 233 233" fill="none" xmlns="http://www.w3.org/2000/svg">
<g clip-path="url(#clip0_74_2)">
<path d="M177.371 225.719H172.129V171.168C172.129 145.275 154.552 123.024 129.373 117.053C128.281 116.791 127.473 115.866 127.371 114.752C127.262 113.631 127.888 112.568 128.914 112.109C139.96 107.195 147.088 96.2289 147.088 84.1785C147.088 67.3151 133.371 53.59 116.507 53.59C99.6438 53.59 85.9259 67.3078 85.9259 84.1785C85.9259 96.2362 93.0616 107.202 104.1 112.109C105.127 112.568 105.746 113.631 105.644 114.752C105.542 115.866 104.733 116.798 103.641 117.053C78.4627 123.017 60.8857 145.268 60.8857 171.168V225.719H55.6432V171.168C55.6432 144.977 72.0697 122.201 96.309 113.74C86.6468 107.136 80.6762 96.1125 80.6762 84.1785C80.6762 69.8781 89.1006 57.5 101.246 51.7624C102.673 48.18 103.394 44.3937 103.394 40.491C103.394 23.6276 89.6758 9.90246 72.8124 9.90246C55.949 9.90246 42.2239 23.6203 42.2239 40.491C42.2239 52.5415 49.3595 63.5143 60.3979 68.4219C61.4318 68.8806 62.0507 69.9436 61.9415 71.065C61.8396 72.179 61.0314 73.111 59.9392 73.3658C34.7606 79.3365 17.1837 101.559 17.1837 127.422V182.031H11.9412V127.422C11.9412 101.268 28.3749 78.5064 52.6069 70.0529C42.952 63.4488 36.9887 52.425 36.9887 40.491C36.9887 20.737 53.0584 4.66724 72.8124 4.66724C92.5664 4.66724 108.636 20.737 108.636 40.491C108.636 43.5637 108.258 46.5781 107.493 49.4979C113.252 48.0052 119.747 48.0052 125.5 49.4979C124.742 46.5781 124.356 43.5637 124.356 40.491C124.356 20.737 140.433 4.66724 160.187 4.66724C179.941 4.66724 196.018 20.737 196.018 40.491C196.018 52.4322 190.048 63.456 180.393 70.0601C204.632 78.5137 221.066 101.275 221.066 127.429V182.031H215.816V127.422C215.816 101.559 198.239 79.3365 173.061 73.3658C171.968 73.1037 171.16 72.179 171.058 71.065C170.949 69.9436 171.575 68.8806 172.602 68.4219C183.64 63.507 190.769 52.5415 190.769 40.491C190.769 23.6276 177.051 9.90246 160.187 9.90246C143.324 9.90246 129.606 23.6203 129.606 40.491C129.606 44.3937 130.327 48.18 131.754 51.7624C143.907 57.5073 152.331 69.8781 152.331 84.1785C152.331 96.1197 146.36 107.144 136.705 113.748C160.945 122.208 177.378 144.984 177.378 171.175L177.371 225.719ZM140.2 176.607L136.487 172.893L109.219 200.169L96.5056 187.456L92.7994 191.169L109.219 207.581L140.2 176.607Z" fill="black"/>
</g>
<defs>
<clipPath id="clip0_74_2">
<rect width="233" height="233" fill="white"/>
</clipPath>
</defs>
</svg>
