<?xml version="1.0" encoding="UTF-8"?>
<svg version="1.1" xmlns="http://www.w3.org/2000/svg" width="520" height="520">
<path d="M0 0 C3.23393378 3.12168933 5.32464473 6.02835339 7.46875 9.99609375 C7.78555222 10.5769725 8.10235443 11.15785126 8.42875671 11.7563324 C9.10649222 13.00053895 9.7811477 14.24642737 10.45297241 15.49383545 C12.23204968 18.79645082 14.03398607 22.08659209 15.83203125 25.37890625 C16.1901741 26.03628784 16.54831696 26.69366943 16.91731262 27.37097168 C19.93932707 32.91172818 23.03989668 38.40457214 26.1875 43.875 C27.15501544 45.55855495 28.12246344 47.24214865 29.08984375 48.92578125 C29.56663574 49.7554541 30.04342773 50.58512695 30.53466797 51.43994141 C33.1270885 55.96911863 35.68692687 60.51667218 38.25 65.0625 C42.77722037 73.08840004 47.33679726 81.09527026 51.9161377 89.09152222 C57.90598033 99.55083838 63.83774191 110.04036862 69.71069336 120.56591797 C74.42173308 128.99690068 79.20732447 137.38395188 84.01043701 145.76263428 C89.50945731 155.35732943 94.93892018 164.98834586 100.30859375 174.65625 C105.35968918 184.90582522 105.35968918 184.90582522 112 194 C112.35078613 193.36835938 112.70157227 192.73671875 113.06298828 192.0859375 C119.63867585 180.25949845 126.26478123 168.47660235 133.125 156.8125 C138.11650419 148.31793044 142.92030531 139.74269258 147.60424805 131.07519531 C151.92564881 123.09126207 156.41532178 115.21129459 160.9375 107.33984375 C164.12997975 101.78275415 167.28682459 96.20587311 170.4375 90.625 C170.97971191 89.6649707 171.52192383 88.70494141 172.08056641 87.71582031 C174.24836055 83.87668325 176.4151342 80.03697176 178.58105469 76.19677734 C185.33152623 64.22888528 192.11902917 52.28304153 198.94845581 40.36004639 C204.58370118 30.51879073 210.14675137 20.63927041 215.65991211 10.72900391 C216.47407593 9.26793213 216.47407593 9.26793213 217.3046875 7.77734375 C217.77890137 6.92390381 218.25311523 6.07046387 218.74169922 5.19116211 C219.75909338 3.41950657 220.86674679 1.69987982 222 0 C225.67900515 1.65190007 228.80912728 3.93565859 232.02374268 6.33647156 C232.62338628 6.78240252 233.22302989 7.22833349 233.84084451 7.68777752 C256.53298613 24.64608727 278.17430589 42.7647255 299.25 61.6875 C300.11494552 62.4615696 300.97989103 63.2356392 301.87104702 64.03316545 C347.0355563 104.57964645 378.39445636 142.90627034 381.9609375 205.3125 C382.98280026 224.97220636 382.55246582 244.53453959 381.625 264.1875 C381.57094057 265.40324314 381.51688114 266.61898627 381.46118355 267.87157011 C380.35363604 292.64064963 378.64400194 317.38906712 375.5710845 341.99901259 C375.34376656 343.83002709 375.12636205 345.66230478 374.919806 347.49577749 C373.14104139 362.90484116 373.14104139 362.90484116 368.36935425 367.07356262 C366.91909642 368.05822626 365.46238518 369.03343917 364 370 C362.51443615 371.38364416 361.0614446 372.80281758 359.63708496 374.24938965 C358.87196091 375.0145842 358.10683685 375.77977875 357.31852722 376.56816101 C356.50894058 377.38291397 355.69935394 378.19766693 354.86523438 379.03710938 C353.98934158 379.91446243 353.11344879 380.79181549 352.21101379 381.695755 C350.32149775 383.58905792 348.43290552 385.4832297 346.54585266 387.37898254 C343.55497515 390.38350523 340.5601772 393.38410018 337.56481934 396.38415527 C331.20689519 402.7531292 324.85322112 409.12633519 318.5 415.5 C311.63858565 422.38349333 304.77642079 429.26622863 297.9093442 436.14407396 C294.93879325 439.11957277 291.9706893 442.0974837 289.00450897 445.07733917 C286.71660383 447.37452811 284.42540687 449.66843048 282.13476562 451.96289062 C281.32517899 452.77764359 280.51559235 453.59239655 279.68147278 454.43183899 C275.49444144 458.6192561 271.21607323 462.61294667 266.72898483 466.47631264 C264.5660897 468.38238834 262.6096308 470.42026898 260.67724609 472.55834961 C256.5284795 477.10073515 252.32175025 481.58198504 248.08789062 486.04516602 C246.28468078 487.96764865 244.50084954 489.9084996 242.73730469 491.86743164 C227.18814867 509.07842906 227.18814867 509.07842906 217.75878906 510.25048828 C212.42460331 510.4477197 207.24086991 509.99299641 202 509 C192.93295407 452.43580052 192.93295407 452.43580052 207.07275391 432.69042969 C213.24398137 424.59803748 220.48200269 417.51470651 228 410.6875 C228.61748989 410.12618504 229.23497978 409.56487007 229.87118149 408.98654556 C237.04032197 402.51664332 244.41338225 396.33690983 252.02587891 390.39628601 C254.32164798 388.54655658 256.51674495 386.66069071 258.71270752 384.698349 C261.68085076 382.07759232 264.73254225 379.66936376 267.92401123 377.32614136 C289.73254489 361.18194601 308.76727571 343.80067577 313.20153999 316.0118891 C315.74243287 298.30117794 315.70894833 280.34567371 315.3432312 262.49738693 C315.25413554 257.9920799 315.24056924 253.4901757 315.25088787 248.98411971 C315.32851078 208.45697778 314.23702643 171.69189978 284.93854904 140.81782532 C270.64853241 126.51702604 254.32266912 114.36008347 237 104 C235.73951943 106.03381574 234.48084693 108.06871519 233.22314453 110.10424805 C232.69567375 110.9547234 232.69567375 110.9547234 232.157547 111.82238007 C228.5254687 117.70674469 225.19383645 123.74694715 221.875 129.8125 C216.97511215 138.71839725 211.97079469 147.55288753 206.8125 156.3125 C201.83974401 164.76479615 197.05756902 173.29817179 192.39550781 181.92529297 C188.074148 189.90904111 183.58458766 197.78886303 179.0625 205.66015625 C175.87002025 211.21724585 172.71317541 216.79412689 169.5625 222.375 C169.02028809 223.3350293 168.47807617 224.29505859 167.91943359 225.28417969 C165.75163945 229.12331675 163.5848658 232.96302824 161.41894531 236.80322266 C154.66655457 248.77451726 147.87825868 260.72442871 141.04550171 272.65002441 C136.13979094 281.21448873 131.30086236 289.81366839 126.5 298.4375 C121.86563959 306.75753082 117.13544968 314.97785345 112 323 C109.1605802 319.60812787 106.87082957 316.22250019 104.75 312.34375 C104.14784668 311.2496582 103.54569336 310.15556641 102.92529297 309.02832031 C102.61154724 308.45327759 102.29780151 307.87823486 101.97454834 307.2857666 C100.30799254 304.23196254 98.62553525 301.18692377 96.9453125 298.140625 C96.60847443 297.5289447 96.27163635 296.9172644 95.92459106 296.28704834 C92.96069717 290.91079144 89.93272619 285.57330068 86.875 280.25 C82.74643439 273.05527066 78.64126159 265.84809829 74.5625 258.625 C74.02004639 257.66456787 73.47759277 256.70413574 72.91870117 255.71459961 C70.75118337 251.87585129 68.58463276 248.03655857 66.41894531 244.19677734 C59.6637441 232.22050005 52.8700365 220.2671383 46.03744507 208.33486938 C40.73177719 199.06578689 35.49327476 189.76067424 30.28930664 180.43408203 C25.57752943 172.00177948 20.79035606 163.61392912 15.98754883 155.2333374 C10.51938897 145.68919558 5.12007468 136.10796646 -0.24267578 126.50415039 C-4.44787524 118.97520944 -8.69553805 111.47265289 -13 104 C-13.85215088 104.80735596 -14.70430176 105.61471191 -15.58227539 106.4465332 C-19.03062884 109.41498644 -22.74695877 111.69620232 -26.66967773 113.96948242 C-50.29804808 127.88179404 -77.30290313 148.31235428 -84.55033207 176.11087513 C-90.32648536 201.98818283 -89.33603717 229.58219674 -88.80544901 255.92218065 C-88.74992288 258.7539328 -88.70363469 261.58571096 -88.65937424 264.41765976 C-88.46522572 276.24003891 -88.10082541 288.04650879 -87.54053283 299.8572433 C-87.4227649 302.40264092 -87.31874231 304.94834245 -87.21602821 307.49438667 C-87.04665082 311.49095281 -86.81191484 315.47877642 -86.52602684 319.46865237 C-86.42944023 320.9176602 -86.35068867 322.36800003 -86.29235065 323.81905115 C-85.93061877 332.27817371 -84.38481031 337.67312075 -78.35137939 343.51934814 C-76.28278054 345.4083156 -74.15436932 347.21025183 -72 349 C-70.5974222 350.2592311 -69.19544826 351.51913559 -67.79443359 352.78010559 C-66.53280201 353.85713948 -65.26799919 354.93047006 -64 356 C-62.60241199 357.20223932 -61.2061449 358.40601548 -59.81103516 359.61112976 C-58.72169442 360.55074539 -58.72169442 360.55074539 -57.61034679 361.50934315 C-45.15068869 372.29261817 -32.97969556 383.37580788 -21 394.6875 C-20.50039654 395.15832363 -20.00079309 395.62914725 -19.48605013 396.11423826 C25.49225988 438.56435648 25.49225988 438.56435648 26.927948 466.58631897 C27.2303323 480.84468461 24.8918483 495.32646314 21 509 C12.88449294 510.39419191 3.83766161 511.55984799 -3.68090057 507.58140182 C-10.35045403 502.74996202 -15.85622371 496.64422972 -21.4609375 490.65234375 C-23.31127844 488.75832617 -25.16558159 486.86922894 -27.02627563 484.98548889 C-31.39299346 480.54572008 -35.70112793 476.05352288 -39.98960459 471.53827244 C-45.32975514 465.92132574 -50.74253168 460.37598554 -56.15625 454.83007812 C-61.69040737 449.15685221 -67.21681069 443.47687466 -72.69833374 437.75267029 C-73.53360092 436.88151077 -74.3688681 436.01035126 -75.22944641 435.11279297 C-76.77415039 433.49969925 -78.31618499 431.88404257 -79.85481262 430.26515198 C-86.03765744 423.81146444 -92.41574279 418.09981093 -99.66488647 412.86099243 C-129.06881402 391.45792247 -150.28350474 368.50889323 -156.48232961 331.72409564 C-159.87334074 309.58552229 -160.47501632 287.2754997 -160.5925293 264.91891336 C-160.62513079 261.36072496 -160.69687901 257.80542749 -160.78149414 254.24811935 C-162.31411298 187.76314404 -151.41735128 139.52581096 -105.05044556 90.33343506 C-73.10300121 57.04116061 -37.04397346 27.41886015 0 0 Z " fill="#DC9B36" transform="translate(148,0)"/>
<path d="M0 0 C3.08413917 2.8423925 5.0538834 5.5610859 6.99609375 9.26953125 C7.5487793 10.31294678 8.10146484 11.3563623 8.67089844 12.43139648 C9.25387695 13.54716064 9.83685547 14.6629248 10.4375 15.8125 C11.67900624 18.1547316 12.92208669 20.49603941 14.16796875 22.8359375 C14.48347687 23.4297673 14.79898499 24.02359711 15.12405396 24.63542175 C18.4028329 30.7904717 21.81080689 36.87077311 25.25 42.9375 C25.79841553 43.90727783 26.34683105 44.87705566 26.91186523 45.8762207 C28.86654784 49.31773776 30.8037338 52.7056007 33 56 C33.11774476 58.92681845 33.1169652 61.75019878 33.02075195 64.67138672 C32.97806661 66.50950786 32.93553761 68.34763264 32.8931427 70.1857605 C32.86706247 71.16167019 32.84098225 72.13757988 32.81411171 73.14306259 C32.68473641 78.32388667 32.61824983 83.50568351 32.54101562 88.6875 C32.43940597 95.27637036 32.31954914 101.86323219 32.12915039 108.45019531 C31.97682588 113.77707372 31.88965572 119.10166341 31.84447289 124.43048477 C31.81562326 126.45213004 31.76346391 128.47359319 31.68663979 130.49398422 C31.08508619 143.66231005 31.08508619 143.66231005 37.33005333 154.75110245 C40.08179079 157.36207201 42.98655204 159.7011876 46 162 C47.44474187 163.23586894 48.88233602 164.48023045 50.30737305 165.73876953 C50.9243808 166.26408264 51.54138855 166.78939575 52.17709351 167.33062744 C55.00630447 169.92154868 57.45890663 172.80810528 59.95870972 175.71311951 C78.7724008 199.37540775 78.7724008 199.37540775 105.14561462 210.99841309 C111.52727205 211.23554158 117.80044137 210.52078418 124.09521484 209.53466797 C130.04634087 208.71980202 135.93710456 208.8567401 141.93215942 208.96438599 C147.71982393 209.0640658 153.50584838 209.07279513 159.29394531 209.01220703 C160.7789615 209.00398981 162.26412341 209.01045154 163.74902344 209.03076172 C172.51172635 209.33679428 172.51172635 209.33679428 180.52734375 206.3984375 C182.5344552 204.45636722 182.5344552 204.45636722 184.04882812 202.3984375 C188.24279086 197.24309592 193.43861501 193.29227287 198.94726562 189.6262207 C214.1419831 179.49154104 233.84168265 165.28169083 238.63581085 146.51051331 C242.091908 128.01827915 240.37713187 108.4829605 238.91796875 89.86254883 C238.62506575 85.98088184 238.34633141 82.09856261 238.08203125 78.21484375 C238.01640299 77.27479177 237.95077473 76.3347398 237.88315773 75.3662014 C236.78487552 57.71835987 240.68684148 46.70642254 251.16226196 32.53408813 C253.57744467 29.20375176 255.49525725 25.71393298 257.38671875 22.0703125 C258.48678639 20.08843465 259.58703157 18.10665533 260.6875 16.125 C261.53731445 14.58199219 261.53731445 14.58199219 262.40429688 13.0078125 C264.98167423 8.37757669 267.4575521 3.98202173 271 0 C283.77893749 12.60598947 283.77893749 12.60598947 287.4375 16.9375 C291.42719011 21.6581257 295.88142316 25.92972489 300.29077148 30.25366211 C301.17937866 31.12970093 301.17937866 31.12970093 302.0859375 32.0234375 C302.8910376 32.81113525 302.8910376 32.81113525 303.71240234 33.61474609 C306.20448943 36.29584244 306.22783214 38.64262983 306.48362732 42.19207764 C306.56317909 43.2946758 306.64273087 44.39727396 306.7246933 45.53328419 C306.84634731 47.35903996 306.84634731 47.35903996 306.97045898 49.22167969 C307.05609856 50.5015787 307.14173813 51.78147772 307.22997284 53.10016155 C308.32452809 69.96876721 308.98756468 86.85283703 309.4375 103.75 C309.45966961 104.5583012 309.48183922 105.36660239 309.50468063 106.19939756 C311.44535132 179.04374644 311.44535132 179.04374644 290.72691345 202.11123657 C287.20666756 205.78949143 283.44860231 209.10342098 279.5 212.3125 C278.87061901 212.82427292 278.24123802 213.33604584 277.59278488 213.86332703 C270.43711317 219.58325104 263.02873032 224.61006046 255.01208496 229.05024719 C249.10014795 232.87710332 244.43666506 237.28736439 240.17227173 242.88858032 C231.33780841 254.02134919 223.11354348 259.63220075 209.15566599 261.3252269 C202.42078067 262.0249838 195.68939344 262.43814594 188.92500758 262.71822143 C186.17822511 262.83735632 183.43429787 262.98505279 180.68934822 263.14054298 C166.92068385 263.90548745 153.16316267 264.24041671 139.375 264.375 C138.37277735 264.38634869 137.3705547 264.39769738 136.33796167 264.40938997 C36.47359514 265.46345224 36.47359514 265.46345224 -0.0480957 230.78369141 C-33.17742197 197.68272108 -40.59946794 161.25832981 -40.80235386 116.14835644 C-40.78919902 99.16734123 -40.01403685 82.22919222 -38.6640625 65.3046875 C-38.61025649 64.60533577 -38.55645049 63.90598403 -38.50101399 63.18543983 C-38.14166794 58.57063661 -37.69927957 53.96986954 -37.20947266 49.36669922 C-37.10967134 48.22437175 -37.00987001 47.08204428 -36.90704441 45.90510082 C-35.91351736 37.77467316 -33.15292704 34.19377976 -27 29 C-25.93421173 27.81288827 -24.88841365 26.60712486 -23.875 25.375 C-19.88903111 20.7262372 -15.52215412 16.46849837 -11.14990234 12.18701172 C-7.20081123 8.29529774 -3.55909406 4.25249443 0 0 Z " fill="#DFA63B" transform="translate(124,147)"/>
<path d="M0 0 C1.02137054 0.26976654 2.04274109 0.53953308 3.09506226 0.81747437 C6.81749202 1.85520238 10.5107841 2.97460677 14.203125 4.11328125 C15.57138689 4.52893736 16.93986053 4.94389698 18.30853271 5.35820007 C21.89605842 6.44621018 25.48062424 7.54366798 29.06463623 8.64318848 C32.67543525 9.74906816 36.28901417 10.84578246 39.90234375 11.94335938 C46.42347579 13.92588659 52.94280201 15.91414299 59.45812988 17.91567993 C61.89404146 18.66141812 64.33190816 19.40079033 66.7713623 20.13485718 C67.95508423 20.49278351 69.13880615 20.85070984 70.35839844 21.21948242 C71.42040466 21.53841965 72.48241089 21.85735687 73.57659912 22.18595886 C76 23 76 23 77 24 C77.1003188 26.45905221 77.1361818 28.89003428 77.12939453 31.34960938 C77.13202301 32.50321709 77.13202301 32.50321709 77.13470459 33.68013 C77.1391234 36.23469263 77.13618502 38.78918661 77.1328125 41.34375 C77.13348553 43.11112481 77.13445555 44.87849953 77.13571167 46.64587402 C77.13718868 50.35490803 77.13503398 54.063918 77.13037109 57.77294922 C77.1246738 62.53822493 77.12795279 67.30344432 77.13394356 72.06871796 C77.13754908 75.71971057 77.13641062 79.37068973 77.13381577 83.02168274 C77.13314647 84.77924099 77.133975 86.53680045 77.13629532 88.2943573 C77.13882171 90.74640154 77.13498146 93.19835331 77.12939453 95.65039062 C77.13141876 96.38393265 77.13344299 97.11747467 77.13552856 97.87324524 C77.11426264 102.88573736 77.11426264 102.88573736 76 104 C74.07421875 104.16796875 74.07421875 104.16796875 71.6875 104.1875 C70.90761719 104.20167969 70.12773437 104.21585938 69.32421875 104.23046875 C66.7967332 103.97984413 65.18281969 103.26373772 63 102 C62.401875 102.474375 61.80375 102.94875 61.1875 103.4375 C56.82974618 106.5501813 52.16963708 106.65795381 47 106 C44.38248962 104.90817873 42.36287082 103.60876311 40 102 C39.278125 102.61875 38.55625 103.2375 37.8125 103.875 C32.18170828 108.12937597 26.94320615 108.90609367 20 108 C17.71366784 107.12793301 15.69871586 106.11727494 13.59375 104.875 C12.0108319 103.8395804 12.0108319 103.8395804 10 104 C8.6696875 105.175625 8.6696875 105.175625 7.3125 106.375 C3.1541711 109.93784005 -1.03484586 110.82134962 -6.4375 111.3125 C-13.78191703 110.66825289 -18.64924249 107.9494507 -24 103 C-24.928125 103.639375 -25.85625 104.27875 -26.8125 104.9375 C-31.88580104 108.2202242 -36.10911745 108.56945198 -42 108 C-45.37077571 106.76404891 -48.40534722 105.31908198 -51.5625 103.625 C-54.12125888 102.6851666 -54.12125888 102.6851666 -56.75 104.375 C-60.95602125 106.47801062 -64.37338903 106.65737818 -69 106 C-71.01526169 105.03112419 -73.01833966 104.0358679 -75 103 C-77.39388923 103.27802838 -77.39388923 103.27802838 -80 104 C-83.00174485 104.14931492 -86.00077447 104.2106894 -89 104 C-90.7082941 102.2917059 -90.11971926 100.13995623 -90.12442017 97.86213684 C-90.12082489 97.12702377 -90.11722961 96.39191071 -90.11352539 95.63452148 C-90.11367142 94.86384338 -90.11381744 94.09316528 -90.1139679 93.2991333 C-90.1132686 90.73975861 -90.10547545 88.1804558 -90.09765625 85.62109375 C-90.09579213 83.85132385 -90.0943682 82.08155344 -90.09336853 80.31178284 C-90.08954288 75.64448634 -90.0797122 70.97722077 -90.06866455 66.30993652 C-90.05845144 61.55102965 -90.05387113 56.79211779 -90.04882812 52.03320312 C-90.03808997 42.68878847 -90.02101299 33.3443968 -90 24 C-85.26010781 21.88909137 -80.52623972 20.12072744 -75.55517578 18.62402344 C-74.84684601 18.40740051 -74.13851624 18.19077759 -73.40872192 17.96759033 C-71.08902807 17.25999575 -68.76743891 16.5589428 -66.4453125 15.859375 C-65.64655575 15.6181617 -64.847799 15.37694839 -64.02483749 15.1284256 C-59.80141403 13.85372491 -55.57639925 12.58445949 -51.35009766 11.31933594 C-47.0027912 10.01670975 -42.66171204 8.69446529 -38.32170296 7.36776352 C-34.96545037 6.34587359 -31.60479185 5.33911947 -28.24279404 4.33631134 C-26.64082731 3.85559444 -25.04055026 3.36920666 -23.44211197 2.87688446 C-7.3873021 -2.05740662 -7.3873021 -2.05740662 0 0 Z " fill="#F4C633" transform="translate(266,409)"/>
<path d="M0 0 C10.38836692 0.49877921 20.4968514 1.8759609 30.75683594 3.49365234 C34.55747138 4.08703671 38.36049209 4.66408724 42.1640625 5.23828125 C42.88371689 5.34693512 43.60337128 5.45558899 44.34483337 5.5675354 C45.81381544 5.78925123 47.28280452 6.01092055 48.75180054 6.23254395 C59.17037754 7.80534598 69.58670844 9.39254921 80 11 C80 12.32 80 13.64 80 15 C75.71 15 71.42 15 67 15 C67 17.31 67 19.62 67 22 C71.29 22.33 75.58 22.66 80 23 C80 35.54 80 48.08 80 61 C73 60 73 60 71.0625 58.5625 C70 57 70 57 70 55 C69.34 55 68.68 55 68 55 C67.95875 55.5775 67.9175 56.155 67.875 56.75 C66.50863689 60.26350514 64.26372071 61.27577019 61 63 C57.00020984 63.66663169 55.38632959 63.21210252 51.8125 61.25 C49.35992499 59.28793999 47.68523694 57.62147969 46 55 C45.46375 55.928125 44.9275 56.85625 44.375 57.8125 C41.66231997 61.45320214 40.2971893 62.59364714 36 64 C30.64235432 64.64675007 26.40914165 64.67940758 21.5 62.3125 C19.03001209 60.02776118 17.49925725 57.9985145 16 55 C15.79246094 55.53109375 15.58492188 56.0621875 15.37109375 56.609375 C12.89721175 62.28170695 10.731529 64.58672463 5 67 C3.35 67 1.7 67 0 67 C0 49.84 0 32.68 0 15 C15 16 15 16 22 17 C22 13.7 22 10.4 22 7 C20.99839844 6.95101563 19.99679687 6.90203125 18.96484375 6.8515625 C17.62237241 6.77645921 16.2799257 6.70091474 14.9375 6.625 C13.62652344 6.55539062 12.31554687 6.48578125 10.96484375 6.4140625 C7.01863043 6.00194564 3.75882927 5.20243433 0 4 C0 2.68 0 1.36 0 0 Z " fill="#605E5C" transform="translate(260,449)"/>
<path d="M0 0 C0 1.65 0 3.3 0 5 C-2.22850277 5.33774332 -4.45783467 5.6700187 -6.6875 6 C-8.54955078 6.2784375 -8.54955078 6.2784375 -10.44921875 6.5625 C-14 7 -14 7 -19 7 C-19 10.3 -19 13.6 -19 17 C-12.73 16.34 -6.46 15.68 0 15 C0.04932895 21.94172114 0.08568574 28.88334092 0.10986328 35.82519531 C0.11993924 38.18816911 0.13360029 40.55113039 0.15087891 42.9140625 C0.17505724 46.30471888 0.18646699 49.69521084 0.1953125 53.0859375 C0.20563507 54.14743011 0.21595764 55.20892273 0.22659302 56.30258179 C0.22674408 57.28344757 0.22689514 58.26431335 0.22705078 59.27490234 C0.231492 60.14094086 0.23593323 61.00697937 0.24050903 61.89926147 C0 64 0 64 -2 66 C-4.3125 66 -4.3125 66 -7 65 C-9.66756289 62.14632807 -11.83547018 59.24679473 -14 56 C-14.7425 56.94875 -15.485 57.8975 -16.25 58.875 C-18.95570422 62.33228873 -21.37787744 63.73814307 -25.734375 64.44140625 C-31.55307822 64.67505884 -35.21720576 64.51834648 -39.75 60.625 C-41.671875 58.7265625 -41.671875 58.7265625 -43 57 C-43 56.34 -43 55.68 -43 55 C-43.66 55 -44.32 55 -45 55 C-45.268125 55.78375 -45.53625 56.5675 -45.8125 57.375 C-47 60 -47 60 -50 62 C-53.71770436 62.54672123 -57.28299158 62.55429073 -61 62 C-64.125 59.5625 -64.125 59.5625 -66 57 C-66.33 56.67 -66.66 56.34 -67 56 C-67.515625 56.639375 -68.03125 57.27875 -68.5625 57.9375 C-71 60 -71 60 -78 61 C-78 48.46 -78 35.92 -78 23 C-73.38 22.67 -68.76 22.34 -64 22 C-64 19.36 -64 16.72 -64 14 C-64.66 14.165 -65.32 14.33 -66 14.5 C-69.73099794 15.12183299 -73.21873378 15.06408926 -77 15 C-77 13.68 -77 12.36 -77 11 C-65.08278085 8.89414601 -53.1332472 7.1722357 -41.13964844 5.56054688 C-31.91989326 4.30560236 -22.74738793 2.85390048 -13.58740234 1.21899414 C-8.99713633 0.41620312 -4.68322331 -0.21891528 0 0 Z " fill="#4A4642" transform="translate(257,449)"/>
<path d="M0 0 C10.1280251 2.25067224 10.1280251 2.25067224 14.42578125 3.515625 C15.37702881 3.79422363 16.32827637 4.07282227 17.30834961 4.35986328 C18.29971924 4.6536084 19.29108887 4.94735352 20.3125 5.25 C21.35994385 5.5579248 22.4073877 5.86584961 23.48657227 6.18310547 C31.76696791 8.62201961 40.0354924 11.10029892 48.30078125 13.58984375 C53.60494358 15.18536911 58.91877978 16.74731062 64.23388672 18.3059082 C69.49578335 19.84937244 74.749978 21.41666003 80 23 C80 27.29 80 31.58 80 36 C53.2445949 30.73282095 26.60962523 24.95548755 0 19 C0 12.73 0 6.46 0 0 Z " fill="#605E5C" transform="translate(260,412)"/>
<path d="M0 0 C0 5.94 0 11.88 0 18 C-6.18705726 20.17237385 -12.26348665 21.83114344 -18.6875 23.12109375 C-19.58887695 23.30712662 -20.49025391 23.49315948 -21.41894531 23.68482971 C-24.27826716 24.2742099 -27.1389979 24.85633624 -30 25.4375 C-33.75066531 26.20381695 -37.50052392 26.97398082 -41.25 27.74609375 C-42.16233398 27.93279633 -43.07466797 28.1194989 -44.01464844 28.31185913 C-50.53474727 29.65879197 -57.01508711 31.13767917 -63.45996094 32.80992126 C-67.72180131 33.87024325 -71.61622277 34.15519986 -76 34 C-76 30.04 -76 26.08 -76 22 C-63.40487047 17.69162236 -50.71917345 13.8549506 -37.890625 10.3046875 C-35.71872621 9.70321089 -33.5468515 9.10164735 -31.375 8.5 C-30.30306396 8.20359619 -29.23112793 7.90719238 -28.12670898 7.60180664 C-20.92006003 5.59014658 -13.8367323 3.36849683 -6.79296875 0.84765625 C-4 0 -4 0 0 0 Z " fill="#4A4642" transform="translate(256,413)"/>
<path d="M0 0 C6.5705166 -0.24794402 12.56971459 0.67611771 19 2 C19 4.64 19 7.28 19 10 C12.56888577 10.10372765 6.39246827 9.72027812 0 9 C0 6.03 0 3.06 0 0 Z " fill="#F4C634" transform="translate(296,459)"/>
<path d="M0 0 C0 2.97 0 5.94 0 9 C-5.96674616 10.32594359 -11.92583615 10.0884587 -18 10 C-18 7.36 -18 4.72 -18 2 C-15.7505194 1.66317938 -13.50039296 1.33066999 -11.25 1 C-9.99703125 0.814375 -8.7440625 0.62875 -7.453125 0.4375 C-4 0 -4 0 0 0 Z " fill="#F6C733" transform="translate(223,459)"/>
<path d="M0 0 C0.33 0 0.66 0 1 0 C1 3.96 1 7.92 1 12 C1.66 12.33 2.32 12.66 3 13 C2.34 13 1.68 13 1 13 C1 18.28 1 23.56 1 29 C7.435 28.505 7.435 28.505 14 28 C14 30.64 14 33.28 14 36 C7.565 36.495 7.565 36.495 1 37 C0.22199319 32.20004797 -0.11851665 27.61437936 -0.09765625 22.75390625 C-0.0962413 22.09792953 -0.09482635 21.44195282 -0.09336853 20.76609802 C-0.08783031 18.69818298 -0.07529002 16.63038158 -0.0625 14.5625 C-0.05747699 13.14909012 -0.0529155 11.73567852 -0.04882812 10.32226562 C-0.03788126 6.88147432 -0.02066038 3.44074828 0 0 Z " fill="#DCB435" transform="translate(179,435)"/>
<path d="M0 0 C0.99 0.33 1.98 0.66 3 1 C4.1875 4.0625 4.1875 4.0625 5 7 C4.01 7.99 3.02 8.98 2 10 C-0.475 9.01 -0.475 9.01 -3 8 C-2.45276317 4.62537285 -1.9451 2.91765 0 0 Z " fill="#EDC136" transform="translate(288,458)"/>
<path d="M0 0 C0.99 0.66 1.98 1.32 3 2 C3.6875 5.625 3.6875 5.625 4 9 C2.02 9.99 2.02 9.99 0 11 C-0.99 10.34 -1.98 9.68 -3 9 C-2.44271087 5.65626525 -1.64826111 2.96687001 0 0 Z " fill="#EEC134" transform="translate(230,457)"/>
<path d="M0 0 C0.99 0.33 1.98 0.66 3 1 C3.33 2.98 3.66 4.96 4 7 C2.35 7.33 0.7 7.66 -1 8 C-1.625 5.6875 -1.625 5.6875 -2 3 C-1.34 2.01 -0.68 1.02 0 0 Z " fill="#EBBF34" transform="translate(197,463)"/>
<path d="M0 0 C0.99 0.33 1.98 0.66 3 1 C3.33 2.98 3.66 4.96 4 7 C3.01 7.66 2.02 8.32 1 9 C0.01 8.34 -0.98 7.68 -2 7 C-1.42415568 4.61435923 -0.77772405 2.33317216 0 0 Z " fill="#F1C335" transform="translate(320,463)"/>
</svg>
